ply
format ascii 1.0
comment Created by Blender 2.91.0 - www.blender.org
element vertex 66
property float x
property float y
property float z
property float s
property float t
element face 50
property list uchar uint vertex_indices
end_header
0.220762 0.000000 2.215882 0.625000 0.625000
-0.168329 0.000000 2.716694 0.875000 0.625000
-0.168329 -0.080057 2.525322 0.875000 0.750000
0.098032 -0.080057 1.921180 0.625000 0.750000
0.039454 -0.080057 -2.281414 0.375000 0.750000
-0.168329 -0.080057 2.525322 0.625000 1.000000
-0.168329 -0.080057 -2.281414 0.375000 1.000000
-0.168329 0.000000 -2.281414 0.375000 0.125000
-0.168329 0.000000 2.716694 0.625000 0.125000
-0.168329 0.080057 2.525322 0.625000 0.250000
-0.168329 0.080057 -2.281414 0.375000 0.250000
0.039454 0.080057 -2.281414 0.375000 0.500000
0.290766 0.184986 -2.285210 0.375000 0.500000
-0.334357 0.184986 -2.285210 0.375000 0.250000
0.176148 0.000000 -2.281414 0.375000 0.625000
0.098032 0.080057 1.921180 0.625000 0.500000
-0.334357 0.000000 -2.285210 0.375000 0.125000
-0.168329 -0.080057 -2.281414 0.375000 0.000000
-0.168329 -0.080057 2.525322 0.625000 0.000000
-0.168329 0.080057 2.525322 0.875000 0.500000
-0.334357 -0.184986 -2.285210 0.375000 1.000000
0.290766 -0.184986 -2.285210 0.375000 0.750000
0.290799 0.000000 -2.285210 0.375000 0.625000
-0.334357 -0.184986 -2.285210 0.375000 0.000000
-0.334357 0.184986 -2.443776 0.375000 0.250000
-0.334357 0.000000 -2.443776 0.375000 0.125000
-0.334357 -0.184986 -2.443776 0.375000 1.000000
0.290766 -0.184986 -2.443776 0.375000 0.750000
-0.334357 -0.184986 -2.443776 0.375000 0.000000
0.290799 0.000000 -2.443776 0.375000 0.625000
0.290766 0.184986 -2.443776 0.375000 0.500000
-0.129901 0.087451 -2.462040 0.375000 0.250000
-0.129901 0.000000 -2.462040 0.375000 0.125000
-0.129901 -0.087451 -2.462040 0.375000 1.000000
0.097072 -0.087451 -2.462040 0.375000 0.750000
-0.129901 -0.087451 -2.462040 0.375000 0.000000
0.098087 0.000000 -2.462040 0.375000 0.625000
0.097072 0.087451 -2.462040 0.375000 0.500000
0.097072 0.087451 -3.792581 0.375000 0.500000
-0.129901 0.087451 -3.792581 0.375000 0.250000
-0.129901 0.000000 -3.792581 0.375000 0.125000
-0.129901 -0.087451 -3.792581 0.375000 1.000000
0.097072 -0.087451 -3.792581 0.375000 0.750000
-0.129901 -0.087451 -3.792581 0.375000 0.000000
0.106161 0.000000 -3.792581 0.375000 0.625000
-0.247987 0.000000 -3.810757 0.375000 0.125000
-0.247987 -0.135365 -3.810757 0.375000 0.000000
0.226935 -0.135365 -3.810757 0.375000 0.750000
0.224882 0.000000 -3.810757 0.375000 0.625000
0.226935 0.135365 -3.810757 0.375000 0.500000
-0.247987 0.135365 -3.810757 0.375000 0.250000
-0.247987 -0.135365 -3.810757 0.375000 1.000000
-0.247987 0.135365 -3.992517 0.375000 0.250000
-0.247987 0.000000 -3.992517 0.375000 0.125000
-0.247987 -0.135365 -3.992517 0.375000 1.000000
0.226935 -0.135365 -3.992517 0.375000 0.750000
-0.247987 -0.135365 -3.992517 0.375000 0.000000
0.224882 0.000000 -3.992517 0.375000 0.625000
0.226935 0.135365 -3.992517 0.375000 0.500000
-0.033786 -0.000014 -3.996597 0.375000 0.750000
-0.033763 0.000000 -3.996597 0.375000 0.625000
-0.033786 0.000014 -3.996597 0.375000 0.500000
-0.033822 0.000014 -3.996597 0.375000 0.250000
-0.033822 0.000000 -3.996597 0.375000 0.125000
-0.033822 -0.000014 -3.996597 0.375000 1.000000
-0.033822 -0.000014 -3.996597 0.375000 0.000000
4 0 1 2 3
4 4 3 5 6
4 7 8 9 10
4 10 11 12 13
4 14 0 3 4
4 10 9 15 11
4 11 15 0 14
4 7 10 13 16
4 17 18 8 7
4 15 19 1 0
4 4 6 20 21
4 14 4 21 22
4 17 7 16 23
4 11 14 22 12
4 16 13 24 25
4 21 20 26 27
4 23 16 25 28
4 22 21 27 29
4 12 22 29 30
4 13 12 30 24
4 25 24 31 32
4 27 26 33 34
4 28 25 32 35
4 29 27 34 36
4 30 29 36 37
4 24 30 37 31
4 31 37 38 39
4 32 31 39 40
4 34 33 41 42
4 35 32 40 43
4 36 34 42 44
4 37 36 44 38
4 43 40 45 46
4 44 42 47 48
4 38 44 48 49
4 39 38 49 50
4 40 39 50 45
4 42 41 51 47
4 45 50 52 53
4 47 51 54 55
4 46 45 53 56
4 48 47 55 57
4 49 48 57 58
4 50 49 58 52
4 57 55 59 60
4 58 57 60 61
4 52 58 61 62
4 53 52 62 63
4 55 54 64 59
4 56 53 63 65
